<svg width="128" height="128" viewBox="0 0 128 128" fill="none" xmlns="http://www.w3.org/2000/svg">
<circle cx="64" cy="64" r="64" fill="white"/>
<path d="M64.9531 16C64.363 20.4265 63.7728 24.8038 63.1826 29.1319C62.6907 33.3617 62.1497 37.6898 61.5595 42.1163H71C71 42.1163 73.4619 20.4265 73.9537 16H92.6925C92.1023 20.4265 91.5121 24.8038 90.9219 29.1319C90.4301 33.3617 89.8891 37.6898 89.2989 42.1163H101.693C101.398 45.0673 101.103 48.0675 100.808 51.1169C100.611 54.0679 100.316 57.0188 99.9225 59.9698H87.3807C87.184 61.5437 86.9873 63.1668 86.7905 64.839C86.5938 66.4128 86.3971 68.0359 86.2003 69.7081H98.7421C98.3486 72.7575 97.9551 75.7577 97.5617 78.7087C97.1682 81.6597 96.8239 84.6598 96.5288 87.7092H83.9871C83.5936 91.939 83.1018 96.1196 82.5116 100.251C82.0197 104.382 81.5279 108.563 81.0361 112.793H62.4448C62.9366 108.563 65.5 87.7092 65.5 87.7092H56.3953C56.0018 91.939 55.51 96.1196 54.9198 100.251C54.3296 104.382 53.8377 108.563 53.4443 112.793H34.7054C35.1973 108.563 35.6891 104.382 36.1809 100.251C36.7711 96.1196 37.263 91.939 37.6564 87.7092H26C26.3935 84.6598 26.7869 81.6597 27.1804 78.7087C27.5739 75.7577 27.9181 72.7575 28.2132 69.7081H39.8697C40.0664 68.0359 40.2631 66.4128 40.4599 64.839C40.6566 63.1668 40.8533 61.5437 41.0501 59.9698H29.3936C29.7871 57.0188 30.0822 54.0679 30.2789 51.1169C30.574 48.0675 30.9183 45.0673 31.3118 42.1163H42.9682C43.5584 37.6898 44.0994 33.3617 44.5913 29.1319C45.1815 24.8038 45.7717 20.4265 46.3619 16H64.9531ZM59.6414 59.9698C59.543 61.5437 59.3463 63.1668 59.0512 64.839C58.8544 66.4128 58.6577 68.0359 58.461 69.7081H67.6091C67.8058 68.0359 68.0025 66.4128 68.1992 64.839C68.396 63.1668 68.5435 61.5437 68.6419 59.9698H59.6414Z" fill="#333333"/>
<path d="M62.4447 112.793C62.9366 108.366 73.9537 16 73.9537 16L83.3231 16L92.6925 16C92.1023 20.4265 91.5121 24.8038 90.9219 29.1319C90.4301 33.3617 89.8891 37.6898 89.2989 42.1163H101.693C101.398 45.0673 101.103 48.0675 100.808 51.1169C100.611 54.0679 100.316 57.0188 99.9224 59.9698H87.3807C87.184 61.5437 86.9872 63.1668 86.7905 64.839C86.5938 66.4129 86.397 68.0359 86.2003 69.7081L82.5116 100.251C82.0197 104.382 81.5279 108.563 81.0361 112.793H62.4447Z" fill="#39A6FF"/>
</svg>
